<?xml version="1.0" encoding="iso-8859-1"?>
<!-- Generator: Adobe Illustrator 19.0.0, SVG Export Plug-In . SVG Version: 6.00 Build 0)  -->
<svg version="1.1" id="Capa_1" xmlns="http://www.w3.org/2000/svg" xmlns:xlink="http://www.w3.org/1999/xlink" x="0px" y="0px"
	 viewBox="0 0 512 512" style="enable-background:new 0 0 512 512;" xml:space="preserve">
<g>
	<g>
		<g>
			<path d="M405.333,149.333C405.333,66.99,338.344,0,256,0S106.667,66.99,106.667,149.333c0,71.311,53.411,174.203,129.671,189.78
				l-20.868,27.824c-2.427,3.229-2.813,7.552-1.01,11.167c1.813,3.615,5.5,5.896,9.542,5.896h20.382
				c-1.326,6.827-3.98,10.424-7.382,14.667c-5.792,7.25-13,16.26-13,38.667s7.208,31.417,13,38.667
				c4.844,6.042,8.333,10.406,8.333,25.333c0,5.896,4.771,10.667,10.667,10.667s10.667-4.771,10.667-10.667
				c0-22.406-7.208-31.417-13-38.667c-4.844-6.042-8.333-10.406-8.333-25.333c0-14.927,3.49-19.292,8.333-25.333
				c4.756-5.954,10.405-13.225,12.294-28H288c4.042,0,7.729-2.281,9.542-5.896c1.802-3.615,1.417-7.938-1.01-11.167l-20.868-27.824
				C351.922,323.536,405.333,220.645,405.333,149.333z M245.333,362.667L256,348.448l10.667,14.219H245.333z M256,320
				c-67.729,0-128-95.438-128-170.667c0-70.583,57.417-128,128-128s128,57.417,128,128C384,224.563,323.729,320,256,320z"/>
			<path d="M208.583,53.792c-36.552,18.208-59.25,54.813-59.25,95.542c0,5.896,4.771,10.667,10.667,10.667
				s10.667-4.771,10.667-10.667c0-32.583,18.167-61.875,47.417-76.438c5.281-2.625,7.427-9.031,4.802-14.302
				S213.854,51.167,208.583,53.792z"/>
			<path d="M469.333,56.958c0-7.406,2.948-10.615,7.844-15.917c5.688-6.177,13.49-14.635,13.49-30.375
				C490.667,4.771,485.896,0,480,0c-5.896,0-10.667,4.771-10.667,10.667c0,7.406-2.948,10.615-7.844,15.917
				C455.802,32.76,448,41.219,448,56.958c0,15.74,7.802,24.198,13.49,30.375c4.896,5.302,7.844,8.51,7.844,15.906
				c0,7.385-2.948,10.583-7.844,15.875c-5.688,6.177-13.49,14.625-13.49,30.344c0,5.896,4.771,10.667,10.667,10.667
				s10.667-4.771,10.667-10.667c0-7.375,2.948-10.573,7.833-15.865c5.698-6.177,13.5-14.625,13.5-30.354
				c0-15.729-7.792-24.188-13.49-30.365C472.281,67.573,469.333,64.365,469.333,56.958z"/>
			<path d="M405.333,320c-11.76,0-21.333,9.573-21.333,21.333c0,11.76,9.573,21.333,21.333,21.333
				c11.76,0,21.333-9.573,21.333-21.333C426.667,329.573,417.094,320,405.333,320z M405.344,341.333c0,0-0.01-0.01-0.01-0.021
				L416,341.333H405.344z"/>
			<path d="M149.333,405.333c-11.76,0-21.333,9.573-21.333,21.333S137.573,448,149.333,448c11.76,0,21.333-9.573,21.333-21.333
				S161.094,405.333,149.333,405.333z M149.344,426.667c0,0-0.01-0.01-0.01-0.021L160,426.667H149.344z"/>
			<path d="M53.333,0c-17.646,0-32,14.354-32,32s14.354,32,32,32c17.646,0,32-14.354,32-32S70.979,0,53.333,0z M53.333,42.667
				c-5.885,0-10.667-4.781-10.667-10.667s4.781-10.667,10.667-10.667C59.219,21.333,64,26.115,64,32S59.219,42.667,53.333,42.667z"
				/>
		</g>
	</g>
</g>
<g>
</g>
<g>
</g>
<g>
</g>
<g>
</g>
<g>
</g>
<g>
</g>
<g>
</g>
<g>
</g>
<g>
</g>
<g>
</g>
<g>
</g>
<g>
</g>
<g>
</g>
<g>
</g>
<g>
</g>
</svg>
