<?xml version="1.0" ?><!DOCTYPE svg  PUBLIC '-//W3C//DTD SVG 1.1//EN'  'http://www.w3.org/Graphics/SVG/1.1/DTD/svg11.dtd'><svg enable-background="new 0 0 24 24" height="24px" id="Layer_1" version="1.1" viewBox="0 0 24 24" width="24px" xml:space="preserve" xmlns="http://www.w3.org/2000/svg" xmlns:xlink="http://www.w3.org/1999/xlink"><path d="M23,7h-1c0-0.6-0.4-1-1-1h-1c0-0.6-0.4-1-1-1h-1c-0.6,0-1,0.4-1,1v5H7V6c0-0.6-0.4-1-1-1H5C4.4,5,4,5.4,4,6H3  C2.4,6,2,6.4,2,7H1C0.4,7,0,7.4,0,8v8c0,0.6,0.4,1,1,1h1c0,0.6,0.4,1,1,1h1c0,0.6,0.4,1,1,1h1c0.6,0,1-0.4,1-1v-5h10v5  c0,0.6,0.4,1,1,1h1c0.6,0,1-0.4,1-1h1c0.6,0,1-0.4,1-1h1c0.6,0,1-0.4,1-1V8C24,7.4,23.6,7,23,7z M2,16H1V8h1V16z M4,17H3v-1V8V7h1  V17z M6,18H5v-1V7V6h1V18z M19,7v10v1h-1V6h1V7z M21,8v8v1h-1V7h1V8z M23,16h-1V8h1V16z"/></svg>