<svg xmlns="http://www.w3.org/2000/svg" xmlns:xlink="http://www.w3.org/1999/xlink" style="enable-background:new 0 0 50 50;" viewBox="0 0 50 50" xml:space="preserve"><g id="Layer_1"><path d="M45.293,19.562l0.699-6.683l-6.139-2.731l-2.73-6.139l-6.683,0.698L25,0.765l-5.439,3.942l-6.682-0.698l-2.731,6.138   l-6.139,2.732l0.698,6.682L0.765,25l3.942,5.438l-0.699,6.683l6.139,2.731l2.73,6.139l6.683-0.698L25,49.235l5.439-3.942   l6.682,0.698l2.731-6.138l6.139-2.732l-0.698-6.682L49.235,25L45.293,19.562z M43.851,35.885l-5.514,2.453l-2.453,5.513   l-5.999-0.626L25,46.765l-4.885-3.54l-6,0.626l-2.453-5.514l-5.513-2.452l0.626-5.999L3.235,25l3.541-4.885l-0.626-6l5.514-2.453   l2.453-5.513l5.999,0.626L25,3.235l4.885,3.54l6-0.626l2.453,5.514l5.513,2.452l-0.626,5.999L46.765,25l-3.541,4.885L43.851,35.885   z"></path><polygon points="21,31.586 14.707,25.293 13.293,26.707 21,34.414 38.707,16.707 37.293,15.293  "></polygon></g><g></g></svg>