<?xml version="1.0" ?><!DOCTYPE svg  PUBLIC '-//W3C//DTD SVG 1.1//EN'  'http://www.w3.org/Graphics/SVG/1.1/DTD/svg11.dtd'><svg enable-background="new 206.194 -264.989 32.78 37.622" height="37.622px" id="Layer_1" version="1.1" viewBox="206.194 -264.989 32.78 37.622" width="32.78px" xml:space="preserve" xmlns="http://www.w3.org/2000/svg" xmlns:xlink="http://www.w3.org/1999/xlink"><g><g><path d="M238.221-227.366c-0.008,0-0.016,0-0.021,0l-31.278-0.891c-0.201-0.005-0.392-0.092-0.528-0.24    c-0.138-0.147-0.208-0.345-0.198-0.546c0.038-0.77,0.072-1.529,0.105-2.282c0.101-2.221,0.193-4.318,0.383-6.447    c0.076-0.852,0.9-1.776,1.623-2.108c1.813-0.833,3.684-1.602,5.665-2.417c0.734-0.302,1.492-0.614,2.28-0.943    c0.231-0.097,0.496-0.07,0.705,0.068c0.208,0.139,0.334,0.373,0.334,0.624v7.904h11.479v-8.36c0-0.276,0.151-0.531,0.396-0.661    c0.243-0.132,0.538-0.116,0.771,0.037l3.633,2.422c0.1-0.011,0.207,0,0.312,0.035l4.58,1.527c0.307,0.102,0.514,0.389,0.514,0.711    v10.817c0,0.203-0.082,0.396-0.229,0.538C238.604-227.442,238.417-227.366,238.221-227.366z M207.729-229.735l29.742,0.848v-9.506    l-3.993-1.331c-0.188,0.037-0.389,0.002-0.561-0.112l-2.649-1.767v7.708c0,0.414-0.336,0.75-0.75,0.75H216.54    c-0.414,0-0.75-0.336-0.75-0.75v-7.531c-0.424,0.175-0.841,0.346-1.25,0.515c-1.967,0.81-3.824,1.573-5.608,2.394    c-0.356,0.164-0.736,0.675-0.755,0.878c-0.186,2.095-0.278,4.177-0.378,6.382C207.776-230.754,207.753-230.247,207.729-229.735z"/></g><g><path d="M223.257-242.154c-0.088,0-0.177-0.017-0.26-0.047c-5.77-2.133-6.635-3.424-6.609-9.867c0-0.336-0.078-0.704-0.162-1.095    c-0.043-0.204-0.087-0.407-0.121-0.61c-0.068-0.408,0.207-0.795,0.616-0.864c0.405-0.068,0.795,0.207,0.863,0.616    c0.03,0.182,0.07,0.362,0.108,0.545c0.096,0.45,0.196,0.914,0.195,1.412c-0.021,5.745,0.438,6.52,5.403,8.373    c3.692-1.05,5.731-2.958,5.935-9.618c0.013-0.406,0.346-0.728,0.75-0.728c0.007,0,0.015,0,0.021,0    c0.414,0.013,0.74,0.358,0.729,0.772c-0.204,6.704-2.176,9.708-7.272,11.084C223.388-242.163,223.323-242.154,223.257-242.154z"/></g><g><path d="M230.016-252.977c-1.086,0-2.142-0.235-3.133-0.457c-1.14-0.254-2.215-0.496-3.254-0.395    c-2.219,0.218-4.479,0.166-6.667,0.114c-0.959-0.021-1.918-0.044-2.875-0.044c-0.285,0-0.546-0.162-0.672-0.418l-0.604-1.222    c-0.176-0.355-0.044-0.787,0.301-0.983l2.138-1.221c0.138-0.079,0.286-0.107,0.437-0.097c-0.305-1.027-0.246-2.166,0.184-3.262    c0.667-1.699,2.103-2.982,3.839-3.435c6.387-1.664,9.438,0.058,11.652,6.569c0.181,0.529,0.755,1.045,1.362,1.592    c0.346,0.311,0.7,0.631,1.022,0.979c0.146,0.158,0.218,0.37,0.196,0.583c-0.021,0.214-0.133,0.408-0.307,0.534    C232.42-253.256,231.2-252.977,230.016-252.977z M224.129-255.352c1.053,0,2.081,0.229,3.082,0.454    c1.724,0.385,3.244,0.724,4.768,0.009c-0.086-0.078-0.171-0.154-0.256-0.23c-0.725-0.65-1.474-1.322-1.779-2.223    c-1.955-5.749-4.254-7.061-9.855-5.601c-1.272,0.33-2.328,1.276-2.819,2.53c-0.422,1.075-0.347,2.189,0.209,3.059    c0.223,0.349,0.12,0.813-0.229,1.036c-0.337,0.215-0.783,0.127-1.014-0.196c-0.062,0.085-0.142,0.16-0.238,0.215l-1.524,0.871    l0.085,0.172c0.813,0.006,1.628,0.024,2.441,0.043c2.145,0.05,4.356,0.1,6.486-0.108    C223.7-255.342,223.916-255.352,224.129-255.352z"/></g><g><path d="M233.03-228.107c-0.007,0-0.014,0-0.021,0c-0.413-0.012-0.739-0.355-0.729-0.771l0.305-11.298    c0.013-0.414,0.351-0.761,0.771-0.729c0.414,0.011,0.74,0.354,0.729,0.77l-0.305,11.298    C233.768-228.43,233.435-228.107,233.03-228.107z"/></g><g><path d="M212.264-228.718c-0.414,0-0.75-0.336-0.75-0.75v-10.382c0-0.414,0.336-0.75,0.75-0.75s0.75,0.336,0.75,0.75v10.382    C213.014-229.054,212.678-228.718,212.264-228.718z"/></g><g><path d="M221.12-258.339c-0.414,0-0.75-0.336-0.75-0.75v-4.275c0-0.413,0.336-0.75,0.75-0.75s0.75,0.337,0.75,0.75v4.275    C221.87-258.675,221.534-258.339,221.12-258.339z"/></g><g><path d="M224.786-258.339c-0.02,0-0.039,0-0.059-0.002c-0.413-0.031-0.723-0.392-0.69-0.805l0.306-3.972    c0.033-0.413,0.38-0.73,0.808-0.688c0.413,0.032,0.722,0.393,0.688,0.806l-0.306,3.969    C225.502-258.638,225.173-258.339,224.786-258.339z"/></g></g></svg>